<mxfile host="app.diagrams.net" modified="2021-05-08T06:47:11.261Z" agent="5.0 (Windows NT 10.0; Win64; x64) AppleWebKit/537.36 (KHTML, like Gecko) Chrome/90.0.4430.93 Safari/537.36" etag="Ch8J2Pf7oPMRL-Upw9FO" version="14.6.11" type="github">
  <diagram id="C5RBs43oDa-KdzZeNtuy" name="Page-1">
    <mxGraphModel dx="1038" dy="556" grid="1" gridSize="10" guides="1" tooltips="1" connect="1" arrows="1" fold="1" page="1" pageScale="1" pageWidth="827" pageHeight="1169" math="0" shadow="0">
      <root>
        <mxCell id="WIyWlLk6GJQsqaUBKTNV-0" />
        <mxCell id="WIyWlLk6GJQsqaUBKTNV-1" parent="WIyWlLk6GJQsqaUBKTNV-0" />
        <mxCell id="xpv4QWi8wNSGkZDYu75m-1" value="" style="edgeStyle=orthogonalEdgeStyle;rounded=0;orthogonalLoop=1;jettySize=auto;html=1;" edge="1" parent="WIyWlLk6GJQsqaUBKTNV-1" source="WIyWlLk6GJQsqaUBKTNV-3" target="xpv4QWi8wNSGkZDYu75m-0">
          <mxGeometry relative="1" as="geometry" />
        </mxCell>
        <mxCell id="WIyWlLk6GJQsqaUBKTNV-3" value="开始" style="rounded=1;whiteSpace=wrap;html=1;fontSize=12;glass=0;strokeWidth=1;shadow=0;" parent="WIyWlLk6GJQsqaUBKTNV-1" vertex="1">
          <mxGeometry x="160" y="80" width="120" height="40" as="geometry" />
        </mxCell>
        <mxCell id="WIyWlLk6GJQsqaUBKTNV-11" value="结束" style="rounded=1;whiteSpace=wrap;html=1;fontSize=12;glass=0;strokeWidth=1;shadow=0;" parent="WIyWlLk6GJQsqaUBKTNV-1" vertex="1">
          <mxGeometry x="160" y="760" width="120" height="40" as="geometry" />
        </mxCell>
        <mxCell id="xpv4QWi8wNSGkZDYu75m-3" value="" style="edgeStyle=orthogonalEdgeStyle;rounded=0;orthogonalLoop=1;jettySize=auto;html=1;" edge="1" parent="WIyWlLk6GJQsqaUBKTNV-1" source="xpv4QWi8wNSGkZDYu75m-0" target="xpv4QWi8wNSGkZDYu75m-2">
          <mxGeometry relative="1" as="geometry" />
        </mxCell>
        <mxCell id="xpv4QWi8wNSGkZDYu75m-0" value="获得(初始)参数" style="rounded=1;whiteSpace=wrap;html=1;" vertex="1" parent="WIyWlLk6GJQsqaUBKTNV-1">
          <mxGeometry x="160" y="160" width="120" height="60" as="geometry" />
        </mxCell>
        <mxCell id="xpv4QWi8wNSGkZDYu75m-5" value="" style="edgeStyle=orthogonalEdgeStyle;rounded=0;orthogonalLoop=1;jettySize=auto;html=1;" edge="1" parent="WIyWlLk6GJQsqaUBKTNV-1" source="xpv4QWi8wNSGkZDYu75m-2" target="xpv4QWi8wNSGkZDYu75m-4">
          <mxGeometry relative="1" as="geometry" />
        </mxCell>
        <mxCell id="xpv4QWi8wNSGkZDYu75m-2" value="基于本地数据进行训练" style="rounded=1;whiteSpace=wrap;html=1;" vertex="1" parent="WIyWlLk6GJQsqaUBKTNV-1">
          <mxGeometry x="155" y="260" width="130" height="60" as="geometry" />
        </mxCell>
        <mxCell id="xpv4QWi8wNSGkZDYu75m-7" value="" style="edgeStyle=orthogonalEdgeStyle;rounded=0;orthogonalLoop=1;jettySize=auto;html=1;" edge="1" parent="WIyWlLk6GJQsqaUBKTNV-1" source="xpv4QWi8wNSGkZDYu75m-4" target="xpv4QWi8wNSGkZDYu75m-6">
          <mxGeometry relative="1" as="geometry" />
        </mxCell>
        <mxCell id="xpv4QWi8wNSGkZDYu75m-4" value="将梯度进行压缩" style="rounded=1;whiteSpace=wrap;html=1;" vertex="1" parent="WIyWlLk6GJQsqaUBKTNV-1">
          <mxGeometry x="160" y="360" width="120" height="60" as="geometry" />
        </mxCell>
        <mxCell id="xpv4QWi8wNSGkZDYu75m-9" value="" style="edgeStyle=orthogonalEdgeStyle;rounded=0;orthogonalLoop=1;jettySize=auto;html=1;" edge="1" parent="WIyWlLk6GJQsqaUBKTNV-1" source="xpv4QWi8wNSGkZDYu75m-6" target="xpv4QWi8wNSGkZDYu75m-8">
          <mxGeometry relative="1" as="geometry" />
        </mxCell>
        <mxCell id="xpv4QWi8wNSGkZDYu75m-6" value="选出的梯度进行AdaGrad优化" style="rounded=1;whiteSpace=wrap;html=1;" vertex="1" parent="WIyWlLk6GJQsqaUBKTNV-1">
          <mxGeometry x="160" y="450" width="120" height="60" as="geometry" />
        </mxCell>
        <mxCell id="xpv4QWi8wNSGkZDYu75m-11" value="" style="edgeStyle=orthogonalEdgeStyle;rounded=0;orthogonalLoop=1;jettySize=auto;html=1;" edge="1" parent="WIyWlLk6GJQsqaUBKTNV-1" source="xpv4QWi8wNSGkZDYu75m-8" target="xpv4QWi8wNSGkZDYu75m-10">
          <mxGeometry relative="1" as="geometry" />
        </mxCell>
        <mxCell id="xpv4QWi8wNSGkZDYu75m-8" value="发送梯度" style="rounded=1;whiteSpace=wrap;html=1;" vertex="1" parent="WIyWlLk6GJQsqaUBKTNV-1">
          <mxGeometry x="160" y="550" width="120" height="60" as="geometry" />
        </mxCell>
        <mxCell id="xpv4QWi8wNSGkZDYu75m-12" value="" style="edgeStyle=orthogonalEdgeStyle;rounded=0;orthogonalLoop=1;jettySize=auto;html=1;" edge="1" parent="WIyWlLk6GJQsqaUBKTNV-1" source="xpv4QWi8wNSGkZDYu75m-10" target="WIyWlLk6GJQsqaUBKTNV-11">
          <mxGeometry relative="1" as="geometry" />
        </mxCell>
        <mxCell id="xpv4QWi8wNSGkZDYu75m-10" value="达到目标精确度" style="rhombus;whiteSpace=wrap;html=1;" vertex="1" parent="WIyWlLk6GJQsqaUBKTNV-1">
          <mxGeometry x="175" y="640" width="90" height="80" as="geometry" />
        </mxCell>
        <mxCell id="xpv4QWi8wNSGkZDYu75m-13" value="是" style="text;html=1;align=center;verticalAlign=middle;resizable=0;points=[];autosize=1;strokeColor=none;" vertex="1" parent="WIyWlLk6GJQsqaUBKTNV-1">
          <mxGeometry x="215" y="720" width="30" height="20" as="geometry" />
        </mxCell>
        <mxCell id="xpv4QWi8wNSGkZDYu75m-14" value="" style="endArrow=classic;html=1;exitX=0;exitY=0.5;exitDx=0;exitDy=0;entryX=0;entryY=0.5;entryDx=0;entryDy=0;" edge="1" parent="WIyWlLk6GJQsqaUBKTNV-1" source="xpv4QWi8wNSGkZDYu75m-10" target="xpv4QWi8wNSGkZDYu75m-2">
          <mxGeometry width="50" height="50" relative="1" as="geometry">
            <mxPoint x="40" y="680" as="sourcePoint" />
            <mxPoint x="80" y="300" as="targetPoint" />
            <Array as="points">
              <mxPoint x="80" y="680" />
              <mxPoint x="80" y="300" />
              <mxPoint x="80" y="290" />
            </Array>
          </mxGeometry>
        </mxCell>
        <mxCell id="xpv4QWi8wNSGkZDYu75m-16" value="否" style="text;html=1;align=center;verticalAlign=middle;resizable=0;points=[];autosize=1;strokeColor=none;" vertex="1" parent="WIyWlLk6GJQsqaUBKTNV-1">
          <mxGeometry x="125" y="660" width="30" height="20" as="geometry" />
        </mxCell>
        <mxCell id="xpv4QWi8wNSGkZDYu75m-23" value="" style="edgeStyle=orthogonalEdgeStyle;rounded=0;orthogonalLoop=1;jettySize=auto;html=1;" edge="1" parent="WIyWlLk6GJQsqaUBKTNV-1" source="xpv4QWi8wNSGkZDYu75m-17" target="xpv4QWi8wNSGkZDYu75m-18">
          <mxGeometry relative="1" as="geometry" />
        </mxCell>
        <mxCell id="xpv4QWi8wNSGkZDYu75m-17" value="开始" style="rounded=1;whiteSpace=wrap;html=1;fontSize=12;glass=0;strokeWidth=1;shadow=0;" vertex="1" parent="WIyWlLk6GJQsqaUBKTNV-1">
          <mxGeometry x="510" y="180" width="120" height="40" as="geometry" />
        </mxCell>
        <mxCell id="xpv4QWi8wNSGkZDYu75m-24" value="" style="edgeStyle=orthogonalEdgeStyle;rounded=0;orthogonalLoop=1;jettySize=auto;html=1;" edge="1" parent="WIyWlLk6GJQsqaUBKTNV-1" source="xpv4QWi8wNSGkZDYu75m-18" target="xpv4QWi8wNSGkZDYu75m-19">
          <mxGeometry relative="1" as="geometry" />
        </mxCell>
        <mxCell id="xpv4QWi8wNSGkZDYu75m-18" value="分发(初始)参数" style="rounded=1;whiteSpace=wrap;html=1;" vertex="1" parent="WIyWlLk6GJQsqaUBKTNV-1">
          <mxGeometry x="510" y="260" width="120" height="60" as="geometry" />
        </mxCell>
        <mxCell id="xpv4QWi8wNSGkZDYu75m-25" value="" style="edgeStyle=orthogonalEdgeStyle;rounded=0;orthogonalLoop=1;jettySize=auto;html=1;" edge="1" parent="WIyWlLk6GJQsqaUBKTNV-1" source="xpv4QWi8wNSGkZDYu75m-19" target="xpv4QWi8wNSGkZDYu75m-20">
          <mxGeometry relative="1" as="geometry" />
        </mxCell>
        <mxCell id="xpv4QWi8wNSGkZDYu75m-19" value="接收梯度，对梯度进行加权" style="rounded=1;whiteSpace=wrap;html=1;" vertex="1" parent="WIyWlLk6GJQsqaUBKTNV-1">
          <mxGeometry x="510" y="360" width="120" height="60" as="geometry" />
        </mxCell>
        <mxCell id="xpv4QWi8wNSGkZDYu75m-26" value="" style="edgeStyle=orthogonalEdgeStyle;rounded=0;orthogonalLoop=1;jettySize=auto;html=1;" edge="1" parent="WIyWlLk6GJQsqaUBKTNV-1" source="xpv4QWi8wNSGkZDYu75m-20" target="xpv4QWi8wNSGkZDYu75m-21">
          <mxGeometry relative="1" as="geometry" />
        </mxCell>
        <mxCell id="xpv4QWi8wNSGkZDYu75m-20" value="运算目标函数" style="rounded=1;whiteSpace=wrap;html=1;" vertex="1" parent="WIyWlLk6GJQsqaUBKTNV-1">
          <mxGeometry x="510" y="470" width="120" height="60" as="geometry" />
        </mxCell>
        <mxCell id="xpv4QWi8wNSGkZDYu75m-27" value="" style="edgeStyle=orthogonalEdgeStyle;rounded=0;orthogonalLoop=1;jettySize=auto;html=1;" edge="1" parent="WIyWlLk6GJQsqaUBKTNV-1" source="xpv4QWi8wNSGkZDYu75m-21" target="xpv4QWi8wNSGkZDYu75m-22">
          <mxGeometry relative="1" as="geometry" />
        </mxCell>
        <mxCell id="xpv4QWi8wNSGkZDYu75m-21" value="达到目标精确度" style="rhombus;whiteSpace=wrap;html=1;" vertex="1" parent="WIyWlLk6GJQsqaUBKTNV-1">
          <mxGeometry x="525" y="580" width="90" height="80" as="geometry" />
        </mxCell>
        <mxCell id="xpv4QWi8wNSGkZDYu75m-22" value="结束" style="rounded=1;whiteSpace=wrap;html=1;fontSize=12;glass=0;strokeWidth=1;shadow=0;" vertex="1" parent="WIyWlLk6GJQsqaUBKTNV-1">
          <mxGeometry x="510" y="700" width="120" height="40" as="geometry" />
        </mxCell>
        <mxCell id="xpv4QWi8wNSGkZDYu75m-28" value="是" style="text;html=1;align=center;verticalAlign=middle;resizable=0;points=[];autosize=1;strokeColor=none;" vertex="1" parent="WIyWlLk6GJQsqaUBKTNV-1">
          <mxGeometry x="565" y="670" width="30" height="20" as="geometry" />
        </mxCell>
        <mxCell id="xpv4QWi8wNSGkZDYu75m-29" value="" style="endArrow=classic;html=1;exitX=0;exitY=0.5;exitDx=0;exitDy=0;entryX=0;entryY=0.5;entryDx=0;entryDy=0;" edge="1" parent="WIyWlLk6GJQsqaUBKTNV-1" source="xpv4QWi8wNSGkZDYu75m-21" target="xpv4QWi8wNSGkZDYu75m-18">
          <mxGeometry width="50" height="50" relative="1" as="geometry">
            <mxPoint x="420" y="620" as="sourcePoint" />
            <mxPoint x="420" y="270" as="targetPoint" />
            <Array as="points">
              <mxPoint x="420" y="620" />
              <mxPoint x="420" y="290" />
            </Array>
          </mxGeometry>
        </mxCell>
        <mxCell id="xpv4QWi8wNSGkZDYu75m-30" value="否" style="text;html=1;align=center;verticalAlign=middle;resizable=0;points=[];autosize=1;strokeColor=none;" vertex="1" parent="WIyWlLk6GJQsqaUBKTNV-1">
          <mxGeometry x="475" y="600" width="30" height="20" as="geometry" />
        </mxCell>
      </root>
    </mxGraphModel>
  </diagram>
</mxfile>
